<svg width="1440" height="960" viewBox="0 0 1440 960" fill="none" xmlns="http://www.w3.org/2000/svg">
  <path d="M30 824C149 689.333 289.2 622 450.6 622C612 622 748.4 687 859.8 817C971.2 947 1126.6 1001.67 1326 981" stroke="#8E7244" stroke-opacity="0.3"/>
  <path d="M44 701C168 576.333 310 514 470 514C630 514 764.8 572.667 874.4 690C984 807.333 1128.53 855.333 1308 834" stroke="#8E7244" stroke-opacity="0.22"/>
  <path d="M80 558C211.333 454 350.533 402 497.6 402C644.667 402 771.467 452 878 552C984.533 652 1119.2 694.667 1282 680" stroke="#8E7244" stroke-opacity="0.16"/>
  <path d="M168 396C298 315.333 426.267 275 552.8 275C679.333 275 788.133 312.667 879.2 388C970.267 463.333 1085.2 492.333 1224 475" stroke="#8E7244" stroke-opacity="0.12"/>
</svg>
